<svg xmlns="http://www.w3.org/2000/svg" width="1200" height="520" viewBox="0 0 1200 520">
  <defs>
    <linearGradient id="ads" x1="0" y1="0" x2="1" y2="1">
      <stop offset="0" stop-color="#0f7a5a"/>
      <stop offset="1" stop-color="#a8e0c9"/>
    </linearGradient>
  </defs>
  <rect width="1200" height="520" fill="#f5f7f8"/>
  <rect x="80" y="80" width="1040" height="360" rx="24" fill="#ffffff" stroke="#dfe5e9"/>
  <rect x="120" y="120" width="420" height="260" rx="20" fill="url(#ads)"/>
  <rect x="150" y="150" width="160" height="26" rx="8" fill="#ffffff" opacity="0.9"/>
  <rect x="150" y="190" width="260" height="16" rx="8" fill="#e3ece8"/>
  <rect x="150" y="215" width="220" height="16" rx="8" fill="#e3ece8"/>
  <rect x="150" y="255" width="120" height="40" rx="14" fill="#0c5f46"/>

  <rect x="600" y="130" width="460" height="120" rx="18" fill="#f1f4f6"/>
  <rect x="600" y="270" width="460" height="120" rx="18" fill="#f1f4f6"/>

  <g transform="translate(650 160)">
    <rect width="60" height="60" rx="14" fill="#0f7a5a"/>
    <path d="M18 26h24l-4 18h-16z" fill="#ffffff"/>
    <path d="M24 12h12l-2 14h-8z" fill="#bfe9d8"/>
  </g>
  <rect x="730" y="150" width="280" height="16" rx="8" fill="#d7dde1"/>
  <rect x="730" y="175" width="240" height="16" rx="8" fill="#d7dde1"/>

  <g transform="translate(650 300)">
    <rect width="60" height="60" rx="14" fill="#0f7a5a"/>
    <path d="M18 26h24l-4 18h-16z" fill="#ffffff"/>
    <path d="M24 12h12l-2 14h-8z" fill="#bfe9d8"/>
  </g>
  <rect x="730" y="290" width="280" height="16" rx="8" fill="#d7dde1"/>
  <rect x="730" y="315" width="240" height="16" rx="8" fill="#d7dde1"/>
</svg>
