<svg xmlns="http://www.w3.org/2000/svg" width="900" height="680" viewBox="0 0 900 680">
  <defs>
    <linearGradient id="bg" x1="0" y1="0" x2="1" y2="1">
      <stop offset="0" stop-color="#f6faf8"/>
      <stop offset="1" stop-color="#ffffff"/>
    </linearGradient>
    <linearGradient id="accent" x1="0" y1="0" x2="1" y2="1">
      <stop offset="0" stop-color="#0f7a5a"/>
      <stop offset="1" stop-color="#2ab37d"/>
    </linearGradient>
  </defs>
  <rect width="900" height="680" rx="36" fill="url(#bg)"/>

  <rect x="70" y="70" width="760" height="160" rx="24" fill="#ffffff" stroke="#dfe5e9"/>
  <circle cx="130" cy="150" r="34" fill="#e6f4ef"/>
  <path d="M118 162h24l-4 16h-16z" fill="#0f7a5a"/>
  <path d="M122 138h16l-2 14h-12z" fill="#a7dfc8"/>
  <rect x="190" y="118" width="220" height="20" rx="10" fill="#d7dde1"/>
  <rect x="190" y="150" width="300" height="16" rx="8" fill="#d7dde1"/>
  <rect x="190" y="175" width="260" height="16" rx="8" fill="#d7dde1"/>

  <rect x="70" y="260" width="760" height="260" rx="24" fill="#ffffff" stroke="#dfe5e9"/>
  <rect x="110" y="310" width="200" height="180" rx="18" fill="#f1f4f6"/>
  <rect x="340" y="330" width="160" height="140" rx="18" fill="#f1f4f6"/>
  <rect x="520" y="300" width="280" height="200" rx="18" fill="#f1f4f6"/>

  <path d="M130 450 C 210 390, 280 370, 360 340 S 520 290, 760 320" fill="none" stroke="url(#accent)" stroke-width="10" stroke-linecap="round"/>
  <circle cx="760" cy="320" r="14" fill="#2ab37d"/>

  <rect x="70" y="550" width="760" height="70" rx="20" fill="#ffffff" stroke="#dfe5e9"/>
  <rect x="100" y="572" width="160" height="26" rx="13" fill="#e6f4ef"/>
  <rect x="280" y="572" width="220" height="26" rx="13" fill="#e6f4ef"/>
  <rect x="520" y="572" width="120" height="26" rx="13" fill="#e6f4ef"/>
</svg>
