<svg xmlns="http://www.w3.org/2000/svg" width="1200" height="600" viewBox="0 0 1200 600">
  <defs>
    <linearGradient id="hero" x1="0" y1="0" x2="1" y2="1">
      <stop offset="0" stop-color="#0f7a5a"/>
      <stop offset="1" stop-color="#bfe9d8"/>
    </linearGradient>
    <linearGradient id="card" x1="0" y1="0" x2="1" y2="1">
      <stop offset="0" stop-color="#ffffff"/>
      <stop offset="1" stop-color="#f6f8f9"/>
    </linearGradient>
  </defs>
  <rect width="1200" height="600" fill="url(#hero)"/>
  <rect x="80" y="80" width="1040" height="440" rx="28" fill="#ffffff" opacity="0.12"/>

  <rect x="140" y="120" width="460" height="300" rx="24" fill="url(#card)" stroke="#dfe5e9"/>
  <rect x="180" y="150" width="180" height="28" rx="10" fill="#e6f4ef"/>
  <rect x="180" y="195" width="320" height="16" rx="8" fill="#d7dde1"/>
  <rect x="180" y="220" width="280" height="16" rx="8" fill="#d7dde1"/>
  <rect x="180" y="260" width="200" height="90" rx="12" fill="#f1f4f6"/>
  <rect x="400" y="260" width="130" height="40" rx="14" fill="#0f7a5a"/>

  <rect x="660" y="150" width="400" height="220" rx="26" fill="url(#card)" stroke="#dfe5e9"/>
  <rect x="700" y="185" width="220" height="26" rx="10" fill="#e6f4ef"/>
  <rect x="700" y="230" width="300" height="16" rx="8" fill="#d7dde1"/>
  <rect x="700" y="255" width="250" height="16" rx="8" fill="#d7dde1"/>
  <rect x="700" y="295" width="150" height="42" rx="14" fill="#0f7a5a"/>

  <g transform="translate(860 380)">
    <circle cx="0" cy="0" r="40" fill="#ffffff" opacity="0.9"/>
    <path d="M-18 6h36l-6 18h-24z" fill="#0f7a5a"/>
    <path d="M-10 -18h20l-2 18h-16z" fill="#1f9d75"/>
  </g>
</svg>
